<?xml version="1.0" encoding="UTF-8"?>
<svg width="3840px" height="2160px" viewBox="0 0 3840 2160" version="1.1" xmlns="http://www.w3.org/2000/svg" xmlns:xlink="http://www.w3.org/1999/xlink">
    <!-- Generator: Sketch 58 (84663) - https://sketch.com -->
    <title>Artboard</title>
    <desc>Created with Sketch.</desc>
        <rect id="point" fill="#D8D8D8" x="507" y="707" width="16" height="16"></rect>
        <rect id="line0" fill="#D8D8D8" x="1672" y="707" width="16" height="16"></rect>
        <rect id="line1" fill="#D8D8D8" x="1693" y="707" width="16" height="16"></rect>
        <rect id="line2" fill="#D8D8D8" x="1715" y="707" width="16" height="16"></rect>
        <rect id="line3" fill="#D8D8D8" x="1736" y="707" width="16" height="16"></rect>
        <rect id="line4" fill="#D8D8D8" x="1758" y="707" width="16" height="16"></rect>
        <rect id="line5" fill="#D8D8D8" x="1779" y="707" width="16" height="16"></rect>
        <rect id="line6" fill="#D8D8D8" x="1802" y="707" width="16" height="16"></rect>
        <rect id="line7" fill="#D8D8D8" x="1823" y="707" width="16" height="16"></rect>
        <rect id="line8" fill="#D8D8D8" x="1844" y="707" width="16" height="16"></rect>
        <rect id="line9" fill="#D8D8D8" x="1866" y="707" width="16" height="16"></rect>
        <rect id="line10" fill="#D8D8D8" x="1887" y="707" width="16" height="16"></rect>
        <rect id="liner11" fill="#D8D8D8" x="1909" y="707" width="16" height="16"></rect>
        <rect id="line12" fill="#D8D8D8" x="1930" y="707" width="16" height="16"></rect>
        <rect id="line13" fill="#D8D8D8" x="1952" y="707" width="16" height="16"></rect>
        <rect id="line14" fill="#D8D8D8" x="1973" y="707" width="16" height="16"></rect>
        <rect id="line15" fill="#D8D8D8" x="1995" y="707" width="16" height="16"></rect>
        <rect id="line16" fill="#D8D8D8" x="2016" y="707" width="16" height="16"></rect>
        <rect id="line17" fill="#D8D8D8" x="2037" y="707" width="16" height="16"></rect>
        <rect id="line18" fill="#D8D8D8" x="2060" y="707" width="16" height="16"></rect>
        <rect id="line19" fill="#D8D8D8" x="2081" y="707" width="16" height="16"></rect>
        <rect id="line20" fill="#D8D8D8" x="2103" y="707" width="16" height="16"></rect>
        <rect id="line21" fill="#D8D8D8" x="2124" y="707" width="16" height="16"></rect>
        <rect id="line22" fill="#D8D8D8" x="2146" y="707" width="16" height="16"></rect>
        <rect id="line23" fill="#D8D8D8" x="2167" y="707" width="16" height="16"></rect>
        <rect id="matrix0" fill="#D8D8D8" x="1763" y="1459" width="16" height="16"></rect>
        <rect id="matrix1" fill="#D8D8D8" x="1800" y="1459" width="16" height="16"></rect>
        <rect id="matrix2" fill="#D8D8D8" x="1839" y="1459" width="16" height="16"></rect>
        <rect id="matrix3" fill="#D8D8D8" x="1876" y="1459" width="16" height="16"></rect>
        <rect id="matrix4" fill="#D8D8D8" x="1913" y="1459" width="16" height="16"></rect>
        <rect id="matrix5" fill="#D8D8D8" x="1952" y="1459" width="16" height="16"></rect>
        <rect id="matrix6" fill="#D8D8D8" x="1990" y="1459" width="16" height="16"></rect>
        <rect id="matrix7" fill="#D8D8D8" x="2027" y="1459" width="16" height="16"></rect>
        <rect id="matrix8" fill="#D8D8D8" x="1763" y="1496" width="16" height="16"></rect>
        <rect id="matrix9" fill="#D8D8D8" x="1800" y="1496" width="16" height="16"></rect>
        <rect id="matrix10" fill="#D8D8D8" x="1839" y="1496" width="16" height="16"></rect>
        <rect id="matrix11" fill="#D8D8D8" x="1876" y="1496" width="16" height="16"></rect>
        <rect id="matrix12" fill="#D8D8D8" x="1913" y="1496" width="16" height="16"></rect>
        <rect id="matrix13" fill="#D8D8D8" x="1952" y="1496" width="16" height="16"></rect>
        <rect id="matrix14" fill="#D8D8D8" x="1990" y="1496" width="16" height="16"></rect>
        <rect id="matrix15" fill="#D8D8D8" x="2027" y="1496" width="16" height="16"></rect>
        <rect id="matrix16" fill="#D8D8D8" x="1763" y="1535" width="16" height="16"></rect>
        <rect id="matrix17" fill="#D8D8D8" x="1800" y="1535" width="16" height="16"></rect>
        <rect id="matrix18" fill="#D8D8D8" x="1839" y="1535" width="16" height="16"></rect>
        <rect id="matrix19" fill="#D8D8D8" x="1876" y="1535" width="16" height="16"></rect>
        <rect id="matrix20" fill="#D8D8D8" x="1913" y="1535" width="16" height="16"></rect>
        <rect id="matrix21" fill="#D8D8D8" x="1952" y="1535" width="16" height="16"></rect>
        <rect id="matrix22" fill="#D8D8D8" x="1990" y="1535" width="16" height="16"></rect>
        <rect id="matrix23" fill="#D8D8D8" x="2027" y="1535" width="16" height="16"></rect>
        <rect id="matrix24" fill="#D8D8D8" x="1763" y="1572" width="16" height="16"></rect>
        <rect id="matrix25" fill="#D8D8D8" x="1800" y="1572" width="16" height="16"></rect>
        <rect id="matrix26" fill="#D8D8D8" x="1839" y="1572" width="16" height="16"></rect>
        <rect id="matrix27" fill="#D8D8D8" x="1876" y="1572" width="16" height="16"></rect>
        <rect id="matrix28" fill="#D8D8D8" x="1913" y="1572" width="16" height="16"></rect>
        <rect id="matrix29" fill="#D8D8D8" x="1952" y="1572" width="16" height="16"></rect>
        <rect id="matrix30" fill="#D8D8D8" x="1990" y="1572" width="16" height="16"></rect>
        <rect id="matrix31" fill="#D8D8D8" x="2027" y="1572" width="16" height="16"></rect>
        <rect id="matrix32" fill="#D8D8D8" x="1763" y="1610" width="16" height="16"></rect>
        <rect id="matrix33" fill="#D8D8D8" x="1800" y="1610" width="16" height="16"></rect>
        <rect id="matrix34" fill="#D8D8D8" x="1839" y="1610" width="16" height="16"></rect>
        <rect id="matrix35" fill="#D8D8D8" x="1876" y="1610" width="16" height="16"></rect>
        <rect id="matrix36" fill="#D8D8D8" x="1913" y="1610" width="16" height="16"></rect>
        <rect id="matrix37" fill="#D8D8D8" x="1952" y="1610" width="16" height="16"></rect>
        <rect id="matrix38" fill="#D8D8D8" x="1990" y="1610" width="16" height="16"></rect>
        <rect id="matrix39" fill="#D8D8D8" x="2027" y="1610" width="16" height="16"></rect>
        <rect id="matrix40" fill="#D8D8D8" x="1763" y="1648" width="16" height="16"></rect>
        <rect id="matrix41" fill="#D8D8D8" x="1800" y="1648" width="16" height="16"></rect>
        <rect id="matrix42" fill="#D8D8D8" x="1839" y="1648" width="16" height="16"></rect>
        <rect id="matrix43" fill="#D8D8D8" x="1876" y="1648" width="16" height="16"></rect>
        <rect id="matrix44" fill="#D8D8D8" x="1913" y="1648" width="16" height="16"></rect>
        <rect id="matrix45" fill="#D8D8D8" x="1952" y="1648" width="16" height="16"></rect>
        <rect id="matrix46" fill="#D8D8D8" x="1990" y="1648" width="16" height="16"></rect>
        <rect id="matrix47" fill="#D8D8D8" x="2027" y="1648" width="16" height="16"></rect>
        <rect id="matrix48" fill="#D8D8D8" x="1763" y="1685" width="16" height="16"></rect>
        <rect id="matrix49" fill="#D8D8D8" x="1800" y="1685" width="16" height="16"></rect>
        <rect id="matrix50" fill="#D8D8D8" x="1839" y="1685" width="16" height="16"></rect>
        <rect id="matrix51" fill="#D8D8D8" x="1876" y="1685" width="16" height="16"></rect>
        <rect id="matrix52" fill="#D8D8D8" x="1913" y="1685" width="16" height="16"></rect>
        <rect id="matrix53" fill="#D8D8D8" x="1952" y="1685" width="16" height="16"></rect>
        <rect id="matrix54" fill="#D8D8D8" x="1990" y="1685" width="16" height="16"></rect>
        <rect id="matrix55" fill="#D8D8D8" x="2027" y="1685" width="16" height="16"></rect>
        <rect id="matrix56" fill="#D8D8D8" x="1763" y="1723" width="16" height="16"></rect>
        <rect id="matrix57" fill="#D8D8D8" x="1800" y="1723" width="16" height="16"></rect>
        <rect id="matrix58" fill="#D8D8D8" x="1839" y="1723" width="16" height="16"></rect>
        <rect id="matrix59" fill="#D8D8D8" x="1876" y="1723" width="16" height="16"></rect>
        <rect id="matrix60" fill="#D8D8D8" x="1913" y="1723" width="16" height="16"></rect>
        <rect id="matrix61" fill="#D8D8D8" x="1952" y="1723" width="16" height="16"></rect>
        <rect id="matrix62" fill="#D8D8D8" x="1990" y="1723" width="16" height="16"></rect>
        <rect id="matrix63" fill="#D8D8D8" x="2027" y="1723" width="16" height="16"></rect>
        <!--
        <rect id="matrix0" fill="#D8D8D8" x="3195" y="1457" width="16" height="16"></rect>
        <rect id="matrix1" fill="#D8D8D8" x="3232" y="1457" width="16" height="16"></rect>
        <rect id="matrix2" fill="#D8D8D8" x="3271" y="1457" width="16" height="16"></rect>
        <rect id="matrix3" fill="#D8D8D8" x="3308" y="1457" width="16" height="16"></rect>
        <rect id="matrix4" fill="#D8D8D8" x="3345" y="1457" width="16" height="16"></rect>
        <rect id="matrix5" fill="#D8D8D8" x="3384" y="1457" width="16" height="16"></rect>
        <rect id="matrix6" fill="#D8D8D8" x="3422" y="1457" width="16" height="16"></rect>
        <rect id="matrix7" fill="#D8D8D8" x="3459" y="1457" width="16" height="16"></rect>
        <rect id="matrix8" fill="#D8D8D8" x="3195" y="1494" width="16" height="16"></rect>
        <rect id="matrix9" fill="#D8D8D8" x="3232" y="1494" width="16" height="16"></rect>
        <rect id="matrix10" fill="#D8D8D8" x="3271" y="1494" width="16" height="16"></rect>
        <rect id="matrix11" fill="#D8D8D8" x="3308" y="1494" width="16" height="16"></rect>
        <rect id="matrix12" fill="#D8D8D8" x="3345" y="1494" width="16" height="16"></rect>
        <rect id="matrix13" fill="#D8D8D8" x="3384" y="1494" width="16" height="16"></rect>
        <rect id="matrix14" fill="#D8D8D8" x="3422" y="1494" width="16" height="16"></rect>
        <rect id="matrix15" fill="#D8D8D8" x="3459" y="1494" width="16" height="16"></rect>
        <rect id="matrix16" fill="#D8D8D8" x="3195" y="1533" width="16" height="16"></rect>
        <rect id="matrix17" fill="#D8D8D8" x="3232" y="1533" width="16" height="16"></rect>
        <rect id="matrix18" fill="#D8D8D8" x="3271" y="1533" width="16" height="16"></rect>
        <rect id="matrix19" fill="#D8D8D8" x="3308" y="1533" width="16" height="16"></rect>
        <rect id="matrix20" fill="#D8D8D8" x="3345" y="1533" width="16" height="16"></rect>
        <rect id="matrix21" fill="#D8D8D8" x="3384" y="1533" width="16" height="16"></rect>
        <rect id="matrix22" fill="#D8D8D8" x="3422" y="1533" width="16" height="16"></rect>
        <rect id="matrix23" fill="#D8D8D8" x="3459" y="1533" width="16" height="16"></rect>
        <rect id="matrix24" fill="#D8D8D8" x="3195" y="1570" width="16" height="16"></rect>
        <rect id="matrix25" fill="#D8D8D8" x="3232" y="1570" width="16" height="16"></rect>
        <rect id="matrix26" fill="#D8D8D8" x="3271" y="1570" width="16" height="16"></rect>
        <rect id="matrix27" fill="#D8D8D8" x="3308" y="1570" width="16" height="16"></rect>
        <rect id="matrix28" fill="#D8D8D8" x="3345" y="1570" width="16" height="16"></rect>
        <rect id="matrix29" fill="#D8D8D8" x="3384" y="1570" width="16" height="16"></rect>
        <rect id="matrix30" fill="#D8D8D8" x="3422" y="1570" width="16" height="16"></rect>
        <rect id="matrix31" fill="#D8D8D8" x="3459" y="1570" width="16" height="16"></rect>
        <rect id="matrix32" fill="#D8D8D8" x="3195" y="1608" width="16" height="16"></rect>
        <rect id="matrix33" fill="#D8D8D8" x="3232" y="1608" width="16" height="16"></rect>
        <rect id="matrix34" fill="#D8D8D8" x="3271" y="1608" width="16" height="16"></rect>
        <rect id="matrix35" fill="#D8D8D8" x="3308" y="1608" width="16" height="16"></rect>
        <rect id="matrix36" fill="#D8D8D8" x="3345" y="1608" width="16" height="16"></rect>
        <rect id="matrix37" fill="#D8D8D8" x="3384" y="1608" width="16" height="16"></rect>
        <rect id="matrix38" fill="#D8D8D8" x="3422" y="1608" width="16" height="16"></rect>
        <rect id="matrix39" fill="#D8D8D8" x="3459" y="1608" width="16" height="16"></rect>
        <rect id="matrix40" fill="#D8D8D8" x="3195" y="1646" width="16" height="16"></rect>
        <rect id="matrix41" fill="#D8D8D8" x="3232" y="1646" width="16" height="16"></rect>
        <rect id="matrix42" fill="#D8D8D8" x="3271" y="1646" width="16" height="16"></rect>
        <rect id="matrix43" fill="#D8D8D8" x="3308" y="1646" width="16" height="16"></rect>
        <rect id="matrix44" fill="#D8D8D8" x="3345" y="1646" width="16" height="16"></rect>
        <rect id="matrix45" fill="#D8D8D8" x="3384" y="1646" width="16" height="16"></rect>
        <rect id="matrix46" fill="#D8D8D8" x="3422" y="1646" width="16" height="16"></rect>
        <rect id="matrix47" fill="#D8D8D8" x="3459" y="1646" width="16" height="16"></rect>
        <rect id="matrix48" fill="#D8D8D8" x="3195" y="1683" width="16" height="16"></rect>
        <rect id="matrix49" fill="#D8D8D8" x="3232" y="1683" width="16" height="16"></rect>
        <rect id="matrix50" fill="#D8D8D8" x="3271" y="1683" width="16" height="16"></rect>
        <rect id="matrix51" fill="#D8D8D8" x="3308" y="1683" width="16" height="16"></rect>
        <rect id="matrix52" fill="#D8D8D8" x="3345" y="1683" width="16" height="16"></rect>
        <rect id="matrix53" fill="#D8D8D8" x="3384" y="1683" width="16" height="16"></rect>
        <rect id="matrix54" fill="#D8D8D8" x="3422" y="1683" width="16" height="16"></rect>
        <rect id="matrix55" fill="#D8D8D8" x="3459" y="1683" width="16" height="16"></rect>
        <rect id="matrix56" fill="#D8D8D8" x="3195" y="1721" width="16" height="16"></rect>
        <rect id="matrix57" fill="#D8D8D8" x="3232" y="1721" width="16" height="16"></rect>
        <rect id="matrix58" fill="#D8D8D8" x="3271" y="1721" width="16" height="16"></rect>
        <rect id="matrix59" fill="#D8D8D8" x="3308" y="1721" width="16" height="16"></rect>
        <rect id="matrix60" fill="#D8D8D8" x="3345" y="1721" width="16" height="16"></rect>
        <rect id="matrix61" fill="#D8D8D8" x="3384" y="1721" width="16" height="16"></rect>
        <rect id="matrix62" fill="#D8D8D8" x="3422" y="1721" width="16" height="16"></rect>
        <rect id="matrix63" fill="#D8D8D8" x="3459" y="1721" width="16" height="16"></rect>
        -->
        <rect id="cirle0" fill="#D8D8D8" x="3329" y="560" width="16" height="16"></rect>
        <rect id="circle1" fill="#D8D8D8" x="3367" y="565" width="16" height="16"></rect>
        <rect id="circle2" fill="#D8D8D8" x="3402" y="580" width="16" height="16"></rect>
        <rect id="circle3" fill="#D8D8D8" x="3433" y="603" width="16" height="16"></rect>
        <rect id="circle4" fill="#D8D8D8" x="3456" y="633" width="16" height="16"></rect>
        <rect id="circle5" fill="#D8D8D8" x="3471" y="669" width="16" height="16"></rect>
        <rect id="circle6" fill="#D8D8D8" x="3471" y="745" width="16" height="16"></rect>
        <rect id="circle7" fill="#D8D8D8" x="3476" y="707" width="16" height="16"></rect>
        <rect id="circle8" fill="#D8D8D8" x="3456" y="781" width="16" height="16"></rect>
        <rect id="circle9" fill="#D8D8D8" x="3433" y="811" width="16" height="16"></rect>
        <rect id="circle10" fill="#D8D8D8" x="3402" y="835" width="16" height="16"></rect>
        <rect id="circle11" fill="#D8D8D8" x="3367" y="849" width="16" height="16"></rect>
        <rect id="circle12" fill="#D8D8D8" x="3329" y="854" width="16" height="16"></rect>
        <rect id="circle13" fill="#D8D8D8" x="3291" y="849" width="16" height="16"></rect>
        <rect id="circle14" fill="#D8D8D8" x="3255" y="835" width="16" height="16"></rect>
        <rect id="circle15" fill="#D8D8D8" x="3225" y="811" width="16" height="16"></rect>
        <rect id="circle16" fill="#D8D8D8" x="3201" y="781" width="16" height="16"></rect>
        <rect id="circle17" fill="#D8D8D8" x="3186" y="745" width="16" height="16"></rect>
        <rect id="circle18" fill="#D8D8D8" x="3181" y="707" width="16" height="16"></rect>
        <rect id="circle19" fill="#D8D8D8" x="3187" y="669" width="16" height="16"></rect>
        <rect id="circle20" fill="#D8D8D8" x="3201" y="634" width="16" height="16"></rect>
        <rect id="circle21" fill="#D8D8D8" x="3225" y="603" width="16" height="16"></rect>
        <rect id="circle22" fill="#D8D8D8" x="3255" y="580" width="16" height="16"></rect>
        <rect id="circle23" fill="#D8D8D8" x="3291" y="565" width="16" height="16"></rect>
</svg>